<svg width="22" height="17" viewBox="0 0 22 17" fill="none" xmlns="http://www.w3.org/2000/svg">
<path d="M16.5 0.479248C14.55 0.479248 12.45 0.874238 11 1.96046C9.55 0.874238 7.45 0.479248 5.5 0.479248C4.05 0.479248 2.51 0.696492 1.22 1.25935C0.49 1.58522 0 2.28633 0 3.08618V14.2249C0 15.5086 1.22 16.4566 2.48 16.1406C3.46 15.8937 4.5 15.7851 5.5 15.7851C7.06 15.7851 8.72 16.0418 10.06 16.6936C10.66 16.9898 11.34 16.9898 11.93 16.6936C13.27 16.032 14.93 15.7851 16.49 15.7851C17.49 15.7851 18.53 15.8937 19.51 16.1406C20.77 16.4665 21.99 15.5185 21.99 14.2249V3.08618C21.99 2.28633 21.5 1.58522 20.77 1.25935C19.49 0.696492 17.95 0.479248 16.5 0.479248ZM20 13.0498C20 13.6719 19.42 14.1261 18.8 14.0175C18.05 13.8793 17.27 13.82 16.5 13.82C14.8 13.82 12.35 14.4619 11 15.3012V3.93541C12.35 3.09605 14.8 2.4542 16.5 2.4542C17.42 2.4542 18.33 2.54307 19.2 2.73069C19.66 2.82944 20 3.2343 20 3.69841V13.0498Z" fill="url(#paint0_linear_17_216)"/>
<path d="M12.98 6.90765C12.66 6.90765 12.37 6.71016 12.27 6.39417C12.14 6.00905 12.36 5.58444 12.75 5.46594C14.29 4.9722 16.28 4.81421 18.11 5.02158C18.52 5.07095 18.82 5.43632 18.77 5.84118C18.72 6.24605 18.35 6.54229 17.94 6.49291C16.32 6.30529 14.55 6.45341 13.21 6.87803C13.13 6.8879 13.05 6.90765 12.98 6.90765Z" fill="url(#paint1_linear_17_216)"/>
<path d="M12.98 9.53436C12.66 9.53436 12.37 9.33687 12.27 9.02088C12.14 8.63576 12.36 8.21115 12.75 8.09265C14.28 7.59891 16.28 7.44092 18.11 7.64829C18.52 7.69766 18.82 8.06303 18.77 8.46789C18.72 8.87276 18.35 9.169 17.94 9.11962C16.32 8.932 14.55 9.08012 13.21 9.50474C13.13 9.52449 13.05 9.53436 12.98 9.53436Z" fill="url(#paint2_linear_17_216)"/>
<path d="M12.98 12.1611C12.66 12.1611 12.37 11.9636 12.27 11.6476C12.14 11.2625 12.36 10.8379 12.75 10.7194C14.28 10.2256 16.28 10.0676 18.11 10.275C18.52 10.3244 18.82 10.6897 18.77 11.0946C18.72 11.4995 18.35 11.7858 17.94 11.7463C16.32 11.5587 14.55 11.7068 13.21 12.1314C13.13 12.1512 13.05 12.1611 12.98 12.1611Z" fill="url(#paint3_linear_17_216)"/>
<defs>
<linearGradient id="paint0_linear_17_216" x1="10.995" y1="0.479248" x2="10.995" y2="16.9158" gradientUnits="userSpaceOnUse">
<stop stop-color="#22C55E"/>
<stop offset="1" stop-color="#1BE866"/>
</linearGradient>
<linearGradient id="paint1_linear_17_216" x1="15.504" y1="4.93262" x2="15.504" y2="6.90765" gradientUnits="userSpaceOnUse">
<stop stop-color="#22C55E"/>
<stop offset="1" stop-color="#1BE866"/>
</linearGradient>
<linearGradient id="paint2_linear_17_216" x1="15.504" y1="7.55933" x2="15.504" y2="9.53436" gradientUnits="userSpaceOnUse">
<stop stop-color="#22C55E"/>
<stop offset="1" stop-color="#1BE866"/>
</linearGradient>
<linearGradient id="paint3_linear_17_216" x1="15.504" y1="10.186" x2="15.504" y2="12.1611" gradientUnits="userSpaceOnUse">
<stop stop-color="#22C55E"/>
<stop offset="1" stop-color="#1BE866"/>
</linearGradient>
</defs>
</svg>
