<svg width="353" height="164" viewBox="0 0 353 164" fill="none" xmlns="http://www.w3.org/2000/svg">
<path d="M189.384 130H168.776L167.24 95.312C166.813 87.0347 166.6 79.6533 166.6 73.168C166.6 68.2187 166.728 63.5253 166.984 59.088L153.288 120.656H133.448L118.856 59.088C119.368 66.512 119.624 73.5093 119.624 80.08C119.624 85.0293 119.496 90.192 119.24 95.568L117.704 130H97.224L103.88 41.296H130.376L143.688 101.456L156.104 41.296H182.728L189.384 130ZM222.937 41.296V113.36H257.497L255.321 130H201.945V41.296H222.937Z" fill="#22C55E"/>
<rect x="328.778" y="62" width="31" height="107" rx="15.5" transform="rotate(40 328.778 62)" fill="#1BE866"/>
<rect x="260" y="19.9264" width="31" height="107" rx="15.5" transform="rotate(-40 260 19.9264)" fill="#1BE866"/>
<rect x="68.7874" width="31" height="107" rx="15.5" transform="rotate(40 68.7874 0)" fill="#1BE866"/>
<rect y="80.2388" width="31" height="107" rx="15.5" transform="rotate(-40 0 80.2388)" fill="#1BE866"/>
</svg>
