<svg width="22" height="21" viewBox="0 0 22 21" fill="none" xmlns="http://www.w3.org/2000/svg">
<path d="M11.65 14.3798C11.79 14.0243 11.7 13.6194 11.42 13.3429L9.33 11.3087L9.36 11.2791C11.1 9.36338 12.34 7.16132 13.07 4.83088H15.01C15.55 4.83088 16 4.38651 16 3.85328V3.83353C16 3.30029 15.55 2.85593 15.01 2.85593H9V1.86846C9 1.32534 8.55 0.880981 8 0.880981C7.45 0.880981 7 1.32534 7 1.86846V2.85593H0.99C0.45 2.85593 0 3.30029 0 3.83353C0 4.37664 0.45 4.81113 0.99 4.81113H11.17C10.5 6.72683 9.44 8.53391 8 10.1139C7.19 9.23501 6.51 8.27716 5.94 7.26994C5.78 6.98357 5.49 6.80583 5.16 6.80583C4.47 6.80583 4.03 7.54643 4.37 8.13892C5 9.25476 5.77 10.3212 6.67 11.3087L2.3 15.5647C1.9 15.9498 1.9 16.5818 2.3 16.9669C2.69 17.3521 3.32 17.3521 3.72 16.9669L8 12.7307L10.02 14.7254C10.53 15.229 11.4 15.0414 11.65 14.3798ZM16.5 8.78077C15.9 8.78077 15.36 9.14614 15.15 9.709L11.48 19.3862C11.24 19.9886 11.7 20.6305 12.35 20.6305C12.74 20.6305 13.09 20.3935 13.23 20.0281L14.12 17.668H18.87L19.77 20.0281C19.91 20.3836 20.26 20.6305 20.65 20.6305C21.3 20.6305 21.76 19.9886 21.53 19.3862L17.86 9.709C17.64 9.14614 17.1 8.78077 16.5 8.78077ZM14.88 15.6931L16.5 11.4173L18.12 15.6931H14.88Z" fill="url(#paint0_linear_17_229)"/>
<defs>
<linearGradient id="paint0_linear_17_229" x1="10.795" y1="0.880981" x2="10.795" y2="20.6305" gradientUnits="userSpaceOnUse">
<stop stop-color="#22C55E"/>
<stop offset="1" stop-color="#1BE866"/>
</linearGradient>
</defs>
</svg>
